<svg width="94" height="72" viewBox="0 0 94 72" fill="none" xmlns="http://www.w3.org/2000/svg">
<g clip-path="url(#clip0_1_238)">
<path d="M94 0H0V72H94V0Z" fill="white"/>
<path d="M94 0H0V72H94V0Z" fill="white"/>
<path d="M43.1243 46.7363C43.1243 50.5331 42.3224 53.3676 40.7185 55.2397C39.1147 57.1118 36.6868 58.0478 33.435 58.0478C32.2894 58.0478 31.4213 57.9863 30.8309 57.8633V54.5937C31.5711 54.7783 32.3467 54.8705 33.1574 54.8705C34.5233 54.8705 35.6469 54.6728 36.5282 54.2773C37.4094 53.873 38.0836 53.2446 38.5507 52.3921C39.0177 51.5307 39.2865 50.3486 39.357 48.8456H39.1984C38.6872 49.6718 38.0968 50.2519 37.427 50.5859C36.7573 50.9199 35.9201 51.0869 34.9155 51.0869C33.2323 51.0869 31.906 50.5508 30.9367 49.4785C29.9673 48.3974 29.4826 46.8989 29.4826 44.9829C29.4826 42.9174 30.0686 41.2871 31.2407 40.0918C32.4216 38.8877 34.0254 38.2856 36.0523 38.2856C37.4799 38.2856 38.7269 38.6196 39.7932 39.2876C40.8683 39.9555 41.6923 40.9267 42.2651 42.2012C42.8379 43.4668 43.1243 44.9785 43.1243 46.7363ZM36.1316 41.5551C35.2856 41.5551 34.6247 41.8452 34.1488 42.4253C33.6729 43.0053 33.435 43.8403 33.435 44.9301C33.435 45.8618 33.6509 46.6001 34.0827 47.145C34.5145 47.6899 35.171 47.9624 36.0523 47.9624C36.8807 47.9624 37.5901 47.6943 38.1805 47.1581C38.7709 46.6133 39.0662 45.9892 39.0662 45.2861C39.0662 44.2402 38.7886 43.3569 38.2334 42.6362C37.687 41.9155 36.9864 41.5551 36.1316 41.5551ZM52.1924 45.4706C54.0607 45.4706 55.5456 45.9936 56.6471 47.0395C57.7575 48.0854 58.3127 49.518 58.3127 51.3374C58.3127 53.4907 57.6473 55.1474 56.3167 56.3076C54.9859 57.4677 53.0825 58.0478 50.6061 58.0478C48.4559 58.0478 46.7198 57.7007 45.3979 57.0063V53.4863C46.0941 53.8554 46.9049 54.1586 47.8302 54.3959C48.7555 54.6245 49.6324 54.7388 50.4608 54.7388C52.9547 54.7388 54.2017 53.7192 54.2017 51.6801C54.2017 49.7378 52.9106 48.7666 50.3286 48.7666C49.8615 48.7666 49.3459 48.8149 48.7819 48.9116C48.2179 48.9995 47.7597 49.0961 47.4072 49.2017L45.7813 48.3315L46.5083 38.5097H56.9908V41.9639H50.0906L49.7337 45.7475L50.1964 45.6552C50.7339 45.5322 51.3993 45.4706 52.1924 45.4706Z" fill="#504F4F"/>
<path d="M63.0767 53.6962C62.5232 53.6962 62.074 53.4881 61.7291 53.0722C61.3922 52.6561 61.2238 52.1081 61.2238 51.4282C61.2238 50.7481 61.3922 50.2001 61.7291 49.7842C62.074 49.3681 62.5232 49.1602 63.0767 49.1602C63.6302 49.1602 64.0793 49.3681 64.4243 49.7842C64.7691 50.2001 64.9416 50.7481 64.9416 51.4282C64.9416 52.1081 64.7691 52.6561 64.4243 53.0722C64.0793 53.4881 63.6302 53.6962 63.0767 53.6962ZM68.2143 49.2082H68.7317L62.9804 57.6082H62.4631L68.2143 49.2082ZM63.0767 53.2882C63.5018 53.2882 63.8427 53.1241 64.0994 52.7962C64.3561 52.4602 64.4844 52.0042 64.4844 51.4282C64.4844 50.8522 64.3561 50.4001 64.0994 50.0722C63.8427 49.7362 63.5018 49.5682 63.0767 49.5682C62.6596 49.5682 62.3227 49.7362 62.066 50.0722C61.8093 50.4082 61.681 50.8601 61.681 51.4282C61.681 51.9961 61.8093 52.4482 62.066 52.7842C62.3227 53.1202 62.6596 53.2882 63.0767 53.2882ZM68.1181 57.6562C67.5646 57.6562 67.1154 57.4481 66.7705 57.0322C66.4256 56.6161 66.2531 56.0681 66.2531 55.3882C66.2531 54.7081 66.4256 54.1601 66.7705 53.7442C67.1154 53.3281 67.5646 53.1202 68.1181 53.1202C68.6716 53.1202 69.1167 53.3281 69.4536 53.7442C69.7985 54.1601 69.971 54.7081 69.971 55.3882C69.971 56.0681 69.7985 56.6161 69.4536 57.0322C69.1167 57.4481 68.6716 57.6562 68.1181 57.6562ZM68.1181 57.2482C68.5352 57.2482 68.872 57.0802 69.1288 56.7442C69.3854 56.4082 69.5138 55.9561 69.5138 55.3882C69.5138 54.8201 69.3854 54.3682 69.1288 54.0322C68.872 53.6962 68.5352 53.5282 68.1181 53.5282C67.6929 53.5282 67.352 53.6962 67.0954 54.0322C66.8386 54.3601 66.7103 54.8122 66.7103 55.3882C66.7103 55.9642 66.8386 56.4202 67.0954 56.7562C67.352 57.0841 67.6929 57.2482 68.1181 57.2482Z" fill="#504F4F"/>
<path d="M10.3159 71.6064C9.13438 72.402 7.52322 72.0951 6.79174 70.8747C2.8802 64.3489 0.616991 56.9576 0.216509 49.3392C-0.229102 40.8624 1.64832 32.4245 5.64727 24.9312C9.64619 17.4381 15.6157 11.1724 22.915 6.80687C30.2143 2.44132 38.5678 0.140688 47.0789 0.151896C55.5901 0.163104 63.9375 2.48574 71.2252 6.87049C78.5133 11.2553 84.4661 17.5366 88.445 25.0403C92.4238 32.544 94.279 40.9868 93.8112 49.4625C93.3901 57.0798 91.1078 64.4651 87.1786 70.9806C86.4439 72.199 84.8324 72.5016 83.6525 71.703C82.4733 70.9042 82.174 69.3069 82.9005 68.0835C86.307 62.3455 88.287 55.8627 88.6563 49.1793C89.0729 41.6373 87.4222 34.1246 83.8811 27.4475C80.3407 20.7703 75.0434 15.1809 68.5585 11.2792C62.0736 7.37747 54.6457 5.3107 47.0721 5.30073C39.4986 5.29075 32.0653 7.33795 25.57 11.2226C19.0748 15.1072 13.7629 20.6826 10.2045 27.3504C6.64608 34.0182 4.97547 41.5266 5.372 49.0696C5.72338 55.754 7.68625 62.242 11.0778 67.9889C11.801 69.2142 11.4974 70.8108 10.3159 71.6064Z" fill="#D7D8D7"/>
<path d="M10.3159 71.6064C9.13438 72.402 7.52322 72.0951 6.79176 70.8747C3.47021 65.3332 1.33084 59.1568 0.519579 52.7328C-0.399367 45.456 0.411577 38.0658 2.88684 31.1595C5.36209 24.2532 9.43217 18.0248 14.768 12.9779C20.1039 7.93099 26.5557 4.20727 33.6017 2.1078C40.6478 0.00832349 48.0903 -0.407958 55.3276 0.892613C62.5648 2.19319 69.3936 5.17411 75.2616 9.59434C81.1302 14.0145 85.8731 19.75 89.1067 26.337C91.9621 32.152 93.5698 38.4866 93.8406 44.9372C93.9007 46.3578 92.7223 47.4958 91.2965 47.477C89.8715 47.4582 88.739 46.2894 88.6698 44.8692C88.3946 39.2271 86.9688 33.6906 84.4706 28.6013C81.5927 22.74 77.3725 17.6363 72.1504 13.703C66.9287 9.76969 60.8521 7.11715 54.4121 5.95985C47.9721 4.80254 41.3494 5.17297 35.0795 7.04117C28.8096 8.90936 23.0686 12.2229 18.3205 16.7139C13.5725 21.2048 9.95075 26.7471 7.74814 32.8926C5.54557 39.0381 4.82396 45.6143 5.64168 52.0894C6.35169 57.7117 8.20491 63.1208 11.0778 67.9889C11.801 69.2142 11.4974 70.8108 10.3159 71.6064Z" fill="#69A08A"/>
</g>
<defs>
<clipPath id="clip0_1_238">
<rect width="94" height="72" fill="white"/>
</clipPath>
</defs>
</svg>
