<svg width="87" height="95" viewBox="0 0 87 95" fill="none" xmlns="http://www.w3.org/2000/svg">
<g clip-path="url(#clip0_1_264)">
<path d="M64.7526 24.3804H21.4029C14.1889 24.3804 8.34106 30.2011 8.34106 37.3811V65.6802C8.34106 72.8603 14.1892 78.6809 21.4029 78.6809H27.6241C27.9202 78.6809 28.16 78.9196 28.16 79.2142V93.1738C28.16 94.8241 30.1884 95.6245 31.3243 94.4214L46.0395 78.8488C46.1408 78.7416 46.2822 78.6809 46.43 78.6809H64.7526C71.9665 78.6809 77.8144 72.8601 77.8144 65.6802V37.3811C77.8144 30.2011 71.9664 24.3804 64.7526 24.3804Z" fill="#8AD0DA"/>
<path opacity="0.3" d="M33.6553 73.8292C33.6553 73.519 33.4231 73.2676 33.1365 73.2676H27.1136C20.1299 73.2676 14.4685 67.1382 14.4685 59.5772V29.7769C14.4685 28.4974 14.6312 27.2592 14.9343 26.0845C10.9957 28.3236 8.34106 32.5438 8.34106 37.3814V65.6804C8.34106 72.8604 14.1892 78.6811 21.4029 78.6811H27.6241C27.9202 78.6811 28.16 78.92 28.16 79.2145V93.1741C28.16 94.8245 30.1884 95.6248 31.3243 94.4218L33.6552 91.9551V73.8292H33.6553Z" fill="#504F4F"/>
<path d="M44.2576 0.572907L45.5857 4.82591H49.8831C50.0513 4.82592 50.2152 4.88133 50.3513 4.9842C50.4873 5.08708 50.5887 5.23215 50.6406 5.39862C50.6927 5.56508 50.6927 5.74439 50.6407 5.91087C50.5888 6.07734 50.4875 6.22242 50.3514 6.32533L46.8746 8.95405L48.2025 13.207C48.2546 13.3735 48.2547 13.5528 48.2026 13.7193C48.1507 13.8858 48.0493 14.0309 47.9132 14.1338C47.7772 14.2366 47.6132 14.292 47.445 14.292C47.2767 14.292 47.1128 14.2366 46.9768 14.1336L43.5001 11.5049L40.0234 14.1336C39.8873 14.2366 39.7234 14.292 39.5552 14.292C39.3869 14.292 39.223 14.2366 39.0869 14.1338C38.9508 14.0309 38.8494 13.8858 38.7975 13.7193C38.7455 13.5528 38.7456 13.3735 38.7976 13.207L40.1256 8.95379L36.6487 6.32507C36.5126 6.22216 36.4113 6.07707 36.3594 5.9106C36.3074 5.74413 36.3074 5.56481 36.3595 5.39835C36.4114 5.23189 36.5128 5.08682 36.6489 4.98394C36.7849 4.88106 36.9488 4.82565 37.117 4.82565H41.4144L42.7425 0.572641C42.7944 0.406166 42.8958 0.261099 43.0319 0.158229C43.168 0.0553599 43.3319 -2.96175e-05 43.5001 1.18809e-08C43.6684 2.96412e-05 43.8323 0.0554769 43.9683 0.158394C44.1044 0.261311 44.2057 0.406415 44.2576 0.572907Z" fill="#FFEC83"/>
<path d="M24.2754 3.80385L25.3685 7.05561H28.9075C29.046 7.05568 29.1809 7.09807 29.2929 7.17672C29.4049 7.25536 29.4882 7.36624 29.5311 7.49345C29.5738 7.62067 29.5739 7.75771 29.5311 7.88495C29.4884 8.01219 29.4051 8.12311 29.2931 8.20182L26.43 10.2109L27.5231 13.4626C27.5659 13.5899 27.5658 13.727 27.523 13.8542C27.4801 13.9815 27.3967 14.0924 27.2846 14.171C27.1726 14.2496 27.0376 14.292 26.8991 14.292C26.7606 14.292 26.6257 14.2496 26.5136 14.171L23.6505 12.1612L20.7873 14.171C20.6753 14.2495 20.5403 14.2919 20.4019 14.2919C20.2634 14.2918 20.1285 14.2495 20.0165 14.1709C19.9044 14.0922 19.821 13.9814 19.7782 13.8542C19.7353 13.727 19.7353 13.5899 19.7779 13.4626L20.8711 10.2109L18.008 8.20182C17.896 8.12312 17.8127 8.01221 17.7699 7.88498C17.7272 7.75775 17.7273 7.62073 17.77 7.49351C17.8128 7.3663 17.8962 7.25543 18.0081 7.17677C18.1201 7.09812 18.255 7.0557 18.3935 7.05561H21.9324L23.0256 3.80385C23.0678 3.67581 23.1512 3.56408 23.2635 3.48481C23.3759 3.40552 23.5113 3.36279 23.6505 3.36279C23.7896 3.36279 23.9251 3.40552 24.0375 3.48481C24.1497 3.56408 24.2331 3.67581 24.2754 3.80385Z" fill="#FFEC83"/>
<path d="M6.53685 9.68574L7.63 12.9381H11.1697C11.3081 12.9382 11.443 12.9806 11.555 13.0592C11.667 13.1379 11.7503 13.2488 11.7931 13.3761C11.8359 13.5033 11.836 13.6403 11.7932 13.7676C11.7505 13.8948 11.6672 14.0058 11.5552 14.0845L8.69198 16.0939L9.78513 19.3462C9.82779 19.4735 9.82771 19.6106 9.78488 19.7378C9.74206 19.8651 9.6586 19.976 9.5466 20.0546C9.4346 20.1332 9.29962 20.1756 9.16118 20.1756C9.02266 20.1757 8.88777 20.1333 8.77568 20.0547L5.91296 18.0457L3.0497 20.0557C2.93764 20.1344 2.80268 20.1768 2.66417 20.1768C2.52566 20.1768 2.3907 20.1344 2.27863 20.0558C2.16656 19.9771 2.08313 19.8662 2.04029 19.7389C1.99744 19.6117 1.99738 19.4746 2.04013 19.3473L3.13328 16.095L0.270025 14.0855C0.158063 14.0068 0.0747511 13.8958 0.0320195 13.7686C-0.010712 13.6414 -0.0106722 13.5043 0.0321332 13.377C0.0749386 13.2498 0.158314 13.1389 0.270322 13.0603C0.382329 12.9816 0.517226 12.9392 0.655694 12.9391H4.19538L5.28853 9.68683C5.33111 9.55929 5.41441 9.44807 5.52648 9.36913C5.63855 9.29027 5.77362 9.24764 5.9123 9.24756C6.05098 9.24747 6.18612 9.28976 6.29834 9.36854C6.41054 9.44723 6.49404 9.55828 6.53685 9.68574Z" fill="#FFEC83"/>
<path d="M63.9737 3.80178L65.0669 7.05385H68.6066C68.745 7.05395 68.8799 7.09636 68.9919 7.17503C69.1038 7.2537 69.1872 7.36458 69.23 7.49181C69.2728 7.61903 69.2728 7.75607 69.2301 7.88331C69.1874 8.01056 69.1041 8.12147 68.9921 8.20018L66.1289 10.2094L67.222 13.4615C67.2647 13.5888 67.2646 13.7259 67.2218 13.8531C67.1789 13.9803 67.0956 14.0912 66.9835 14.1698C66.8715 14.2484 66.7365 14.2908 66.5981 14.2908C66.4595 14.2909 66.3247 14.2485 66.2126 14.1699L63.3493 12.16L60.4866 14.1709C60.3745 14.2496 60.2396 14.292 60.101 14.292C59.9626 14.292 59.8276 14.2496 59.7155 14.171C59.6034 14.0924 59.52 13.9815 59.4772 13.8542C59.4343 13.727 59.4343 13.5898 59.477 13.4626L60.5702 10.2105L57.7069 8.20121C57.5949 8.1225 57.5116 8.01156 57.4689 7.88432C57.4262 7.75706 57.4262 7.62 57.469 7.49277C57.5118 7.36555 57.5952 7.25467 57.7072 7.17601C57.8192 7.09735 57.9541 7.05496 58.0926 7.05489H61.6317L62.7249 3.8028C62.7674 3.6751 62.8506 3.56371 62.9627 3.48464C63.0749 3.40557 63.21 3.36291 63.3489 3.36279C63.4878 3.36268 63.623 3.40511 63.7353 3.484C63.8476 3.56288 63.9311 3.67414 63.9737 3.80178Z" fill="#FFEC83"/>
<path d="M81.7116 9.68658L82.8048 12.9386H86.3446C86.4831 12.9387 86.6174 12.9811 86.7298 13.0598C86.8421 13.1384 86.9249 13.2493 86.9679 13.3766C87.011 13.5038 87.011 13.6408 86.9679 13.768C86.9249 13.8953 86.8421 14.0062 86.7298 14.0849L83.8668 16.0942L84.9602 19.3463C85.0024 19.4736 85.0024 19.6106 84.9593 19.7379C84.9171 19.8651 84.8335 19.976 84.7212 20.0546C84.6097 20.1332 84.4745 20.1756 84.336 20.1756C84.1975 20.1757 84.0626 20.1333 83.9505 20.0547L81.0873 18.0448L78.2245 20.0557C78.1124 20.1344 77.9775 20.1768 77.8389 20.1768C77.7005 20.1768 77.5655 20.1344 77.4534 20.0558C77.3414 19.9772 77.2579 19.8663 77.2151 19.739C77.1723 19.6117 77.1722 19.4746 77.2149 19.3473L78.3081 16.0953L75.4448 14.086C75.3328 14.0072 75.2496 13.8963 75.2068 13.7691C75.1641 13.6419 75.1642 13.5047 75.2069 13.3775C75.2497 13.2503 75.3331 13.1394 75.4451 13.0608C75.5571 12.9822 75.692 12.9397 75.8305 12.9396H79.3696L80.4628 9.68759C80.5053 9.55988 80.5886 9.44849 80.7007 9.36938C80.8128 9.29035 80.948 9.24764 81.0868 9.24756C81.2257 9.24747 81.3609 9.28985 81.4732 9.36879C81.5855 9.44765 81.669 9.55887 81.7116 9.68658Z" fill="#FFEC83"/>
<path d="M26.1844 45.5581H35.3374V61.5009H26.1844V45.5581Z" fill="#FB7560"/>
<path d="M55.9312 45.5585H46.7783V38.7259C46.7783 37.8198 46.4167 36.9509 45.773 36.3102C45.1293 35.6695 44.2563 35.3096 43.346 35.3096H41.0577L40.6373 38.2394C40.414 39.795 39.8152 41.2734 38.8921 42.5481C37.969 43.8228 36.7492 44.8557 35.3372 45.5585V61.5012L36.3743 62.1894C37.9361 63.2257 39.7711 63.7787 41.6481 63.7786H54.7871C55.394 63.7786 55.9761 63.5387 56.4052 63.1116C56.8344 62.6845 57.0754 62.1052 57.0754 61.5012C57.0754 60.8971 56.8344 60.3178 56.4052 59.8907C55.9761 59.4635 55.394 59.2236 54.7871 59.2236C55.394 59.2236 55.9761 58.9837 56.4052 58.5566C56.8344 58.1294 57.0754 57.5502 57.0754 56.9461C57.0754 56.3421 56.8344 55.7627 56.4052 55.3357C55.9761 54.9085 55.394 54.6686 54.7871 54.6686C55.394 54.6686 55.9761 54.4286 56.4052 54.0014C56.8344 53.5744 57.0754 52.995 57.0754 52.391C57.0754 51.787 56.8344 51.2077 56.4052 50.7805C55.9761 50.3535 55.394 50.1135 54.7871 50.1135H55.9312C56.5381 50.1135 57.1202 49.8736 57.5493 49.4464C57.9784 49.0193 58.2195 48.44 58.2195 47.8359C58.2195 47.2319 57.9784 46.6527 57.5493 46.2255C57.1202 45.7984 56.5381 45.5585 55.9312 45.5585Z" fill="#FFD2A8"/>
</g>
<defs>
<clipPath id="clip0_1_264">
<rect width="87" height="95" fill="white"/>
</clipPath>
</defs>
</svg>
