<svg width="88" height="88" viewBox="0 0 88 88" fill="none" xmlns="http://www.w3.org/2000/svg">
<g clip-path="url(#clip0_1_250)">
<path d="M88 0H0V88H88V0Z" fill="white"/>
<path d="M26.026 38.0444L6.80823 74.2514L24.2597 72.6392L32.7061 87.9967L51.9238 51.7899L26.026 38.0444Z" fill="#E95454"/>
<path d="M28.227 77.454C28.7662 76.2957 28.2022 74.9117 27.0742 74.312L25.9682 73.7232C24.8621 73.0932 24.4412 71.6928 25.0437 70.5593C25.6545 69.4065 27.0906 68.9662 28.2434 69.577L31.3689 71.2361C32.3346 71.7478 33.5452 71.3764 34.0432 70.4052L34.1202 70.2566C34.6925 69.3404 34.3541 68.1298 33.4021 67.6264L24.0532 62.6657C22.9142 62.0605 22.3557 60.6821 22.8867 59.521C23.4727 58.2857 24.9529 57.7988 26.1442 58.4316L34.8162 63.0345C35.782 63.5462 36.9926 63.1748 37.5043 62.2091L37.5538 62.0825L37.5676 62.055C38.1206 61.0425 37.7326 59.7714 36.7119 59.2294L31.8476 56.6487C30.7086 56.0434 30.1501 54.665 30.6894 53.4902C31.2698 52.2686 32.7556 51.7679 33.9469 52.4007L39.3202 55.2538C40.3244 55.7876 41.5239 55.3418 42.0439 54.3293C42.0522 54.3156 42.0522 54.3156 42.0577 54.3018C42.0659 54.2881 42.0659 54.2881 42.0714 54.2744C42.619 53.2757 42.3163 52.0321 41.3094 51.501L35.5123 48.4251C34.387 47.8281 33.8286 46.4497 34.3596 45.2886C34.9456 44.0533 36.4258 43.5663 37.6171 44.1991L51.9183 51.7899L32.7006 87.9966L27.4043 78.3701C27.7454 78.139 28.0426 77.8529 28.227 77.454Z" fill="#ED6362"/>
<path d="M61.9745 38.0444L81.192 74.2514L63.7409 72.6392L55.2944 87.9967L36.0767 51.7899L61.9745 38.0444Z" fill="#ED6362"/>
<path d="M59.7733 77.4541C59.2341 76.2959 59.7981 74.9119 60.9261 74.3122L62.0321 73.7234C63.1382 73.0933 63.5591 71.6929 62.9566 70.5594C62.3458 69.4066 60.9096 68.9664 59.7568 69.5772L56.6314 71.2362C55.6656 71.7479 54.4551 71.3765 53.9571 70.4053L53.8801 70.2567C53.3078 69.3406 53.6462 68.13 54.5982 67.6265L63.9498 62.6632C65.0888 62.0579 65.6473 60.6795 65.1163 59.5185C64.5303 58.2831 63.0501 57.7962 61.8588 58.429L53.1867 63.0319C52.2211 63.5436 51.0105 63.1722 50.4987 62.2065L50.4492 62.0799L50.4355 62.0524C49.8824 61.0399 50.2703 59.7688 51.2911 59.2268L56.1554 56.6461C57.2944 56.0408 57.8529 54.6624 57.3137 53.4876C56.7331 52.2661 55.2475 51.7654 54.0562 52.3982L48.6774 55.2567C47.6731 55.7905 46.4736 55.3447 45.9536 54.3323C45.9454 54.3186 45.9454 54.3186 45.9399 54.3048C45.9316 54.2911 45.9316 54.2911 45.9261 54.2773C45.3786 53.2786 45.6812 52.035 46.6882 51.5039L52.4851 48.428C53.6104 47.831 54.169 46.4526 53.6379 45.2915C53.0519 44.0563 51.5717 43.5692 50.3804 44.202L36.0792 51.7929L55.297 88L60.5932 78.3731C60.2548 78.1392 59.9577 77.8531 59.7733 77.4541Z" fill="#E95454"/>
<path d="M44 64.2206C61.7341 64.2206 76.1103 49.8443 76.1103 32.1103C76.1103 14.3762 61.7341 0 44 0C26.266 0 11.8896 14.3762 11.8896 32.1103C11.8896 49.8443 26.266 64.2206 44 64.2206Z" fill="#FFCC5B"/>
<path d="M48.3551 28.4263H28.0065C26.4245 28.4263 25.1259 27.1278 25.1259 25.5458L25.1479 25.3477V25.3036C25.1259 23.6336 26.4878 22.269 28.1606 22.269H42.2637C44.1318 22.269 45.7826 20.885 45.8926 19.0142C45.9807 17.058 44.4207 15.4073 42.4618 15.4073H27.5223C25.8743 15.4073 24.6417 14.0234 24.6637 12.3726C24.6637 12.3506 24.6637 12.3506 24.6637 12.3286C24.6637 12.3066 24.6637 12.3066 24.6637 12.2846C24.6417 10.6365 25.8715 9.24984 27.5223 9.24984H43.1551C45.0012 9.24984 46.6519 7.86596 46.762 6.01709C46.8501 4.03892 45.2901 2.41016 43.3311 2.41016H31.8831C20.2093 7.22216 11.983 18.7006 11.983 32.1103C11.983 45.5201 20.2093 56.9958 31.8858 61.8022H46.4209C48.267 61.8022 49.9178 60.4183 50.0278 58.5694C50.1159 56.5913 48.5559 54.9653 46.597 54.9653L30.0617 54.9626C28.1111 54.9626 26.54 53.331 26.6446 51.3556C26.7409 49.5067 28.4027 48.1174 30.2543 48.1174H36.6648C38.5082 48.065 39.9966 46.5546 39.9966 44.6974C39.9966 42.8074 38.4587 41.2666 36.5658 41.2666H26.8482C25.2662 41.2666 23.9676 39.9707 23.9896 38.386V38.1439C23.8795 36.5839 25.1342 35.2633 26.6941 35.2633H48.1569C50.0251 35.2633 51.6759 33.8794 51.7859 32.0306C51.8739 30.0551 50.3112 28.4263 48.3551 28.4263Z" fill="#FDBC4B"/>
<path d="M44.0002 55.0287C31.3608 55.0287 21.0793 44.7443 21.0793 32.1077C21.0793 19.471 31.3608 9.18945 44.0002 9.18945C56.6397 9.18945 66.9212 19.4738 66.9212 32.1104C66.9212 44.7471 56.6397 55.0287 44.0002 55.0287Z" fill="#FFDB70"/>
<path opacity="0.2" d="M66.9212 32.1098C66.9212 19.9162 57.3412 9.94272 45.3152 9.25488H43.1803C41.7716 9.25488 40.5143 10.3114 40.429 11.7201C40.3629 13.2278 41.5515 14.4714 43.0455 14.4714L55.6574 14.4741C57.1458 14.4741 58.3426 15.7177 58.2629 17.2254C58.1885 18.6368 56.923 19.6961 55.5088 19.6961H50.6197C49.2139 19.7374 48.0776 20.8874 48.0776 22.3043C48.0776 23.746 49.2524 24.9207 50.694 24.9207H58.1061C59.3138 24.9207 60.3016 25.9112 60.285 27.1163V27.2978C60.3676 28.4892 59.4129 29.4934 58.2216 29.4934H41.8541C40.429 29.4934 39.1716 30.5499 39.0864 31.9586C39.0203 33.4662 40.2088 34.7098 41.7028 34.7098H57.2201C58.4279 34.7098 59.4157 35.7003 59.4157 36.9054L59.3992 37.0567V37.0897C59.4157 38.3636 58.3757 39.4035 57.1018 39.4035H46.3443C44.9191 39.4035 43.6617 40.4601 43.5764 41.8852C43.5104 43.3764 44.699 44.6365 46.1929 44.6365H57.5861C58.8434 44.6365 59.7816 45.693 59.7651 46.9503C59.7651 46.9669 59.7651 46.9669 59.7651 46.9834C59.7651 46.9998 59.7651 46.9998 59.7651 47.0164C59.7816 48.2737 58.8434 49.3302 57.5861 49.3302H45.6647C44.256 49.3302 42.9987 50.3867 42.9134 51.7954C42.8474 53.3058 44.0359 54.5466 45.5299 54.5466H48.6746C59.0828 52.3787 66.9212 43.1426 66.9212 32.1098Z" fill="white"/>
<path d="M60.0013 27.0341H48.8532L45.4057 16.4306C44.9628 15.0687 43.0341 15.0687 42.5912 16.4306L39.1466 27.0341H27.9984C26.5649 27.0341 25.9679 28.8692 27.1289 29.7111L36.1477 36.2647L32.7031 46.8681C32.2601 48.2301 33.8201 49.3636 34.9812 48.5217L43.9999 41.9681L53.0186 48.5217C54.1797 49.3636 55.7396 48.2301 55.2966 46.8681L51.8521 36.2647L60.8708 29.7111C62.0291 28.8692 61.4348 27.0341 60.0013 27.0341Z" fill="white"/>
</g>
<defs>
<clipPath id="clip0_1_250">
<rect width="88" height="88" fill="white"/>
</clipPath>
</defs>
</svg>
