<svg width="172" height="86" viewBox="0 0 172 86" fill="none" xmlns="http://www.w3.org/2000/svg">
<path d="M171.28 0H0.00360107V86H171.28V0Z" fill="white"/>
<path d="M0.132812 52.8868C0.132812 47.2042 4.75924 42.5977 10.4663 42.5977H161.151C166.857 42.5977 171.484 47.2042 171.484 52.8868V75.5752C171.484 81.2577 166.857 85.8638 161.151 85.8638H0.132812V52.8868Z" fill="#F7F7F4"/>
<path d="M145.545 58.0091C148.715 58.0091 151.284 56.967 151.284 55.6815C151.284 54.3961 148.715 53.354 145.545 53.354C142.376 53.354 139.806 54.3961 139.806 55.6815C139.806 56.967 142.376 58.0091 145.545 58.0091Z" fill="#D9D6D6"/>
<path d="M25.4155 59.6219H24.1111L21.1467 64.4627L18.1955 59.6219H16.7858L20.4484 65.604V68.8049H21.7528V65.6302L25.4155 59.6219ZM28.7737 68.8836C30.8685 68.8836 32.3968 67.4012 32.3968 65.3285C32.3968 63.2557 30.8685 61.7865 28.7737 61.7865C26.6788 61.7865 25.1373 63.2557 25.1373 65.3285C25.1373 67.4012 26.6788 68.8836 28.7737 68.8836ZM28.7737 67.7817C27.4298 67.7817 26.4153 66.8109 26.4153 65.3285C26.4153 63.8461 27.4298 62.8884 28.7737 62.8884C30.1175 62.8884 31.1188 63.8461 31.1188 65.3285C31.1188 66.8109 30.1175 67.7817 28.7737 67.7817ZM39.3897 61.8521V65.4466C39.3897 66.9421 38.5465 67.7554 37.229 67.7554C36.0301 67.7554 35.345 67.0733 35.345 65.7089V61.8521H34.0802V65.8532C34.0802 67.8997 35.2791 68.8836 37.0841 68.8836C38.0722 68.8836 38.9418 68.477 39.4556 67.7554V68.8049H40.6545V61.8521H39.3897ZM43.3786 58.9922C42.878 58.9922 42.4959 59.3595 42.4959 59.8843C42.4959 60.2778 42.7199 60.5795 43.0493 60.6976L42.5618 62.6523H43.3918L44.0242 60.8157C44.1955 60.3303 44.235 60.1335 44.235 59.8843C44.235 59.3726 43.8793 58.9922 43.3786 58.9922ZM47.2595 63.0196V61.8521H46.0474V68.8049H47.3122V65.3416C47.3122 63.8198 48.1554 62.9934 49.5124 62.9934C49.6047 62.9934 49.6969 62.9934 49.8023 63.0065V61.7865C48.577 61.7865 47.7075 62.2063 47.2595 63.0196ZM57.6077 65.3678C57.6077 63.2295 56.1717 61.7865 54.1559 61.7865C52.1401 61.7865 50.6513 63.2689 50.6513 65.3285C50.6513 67.4012 52.1533 68.8836 54.4062 68.8836C55.5656 68.8836 56.5274 68.4901 57.1598 67.7554L56.4615 66.9421C55.9477 67.5062 55.2626 67.7817 54.4457 67.7817C53.0623 67.7817 52.0742 66.9683 51.9161 65.7483H57.5814C57.5946 65.6302 57.6077 65.4728 57.6077 65.3678ZM54.1559 62.8491C55.3812 62.8491 56.2639 63.6755 56.3956 64.8431H51.9161C52.0479 63.6624 52.9438 62.8491 54.1559 62.8491ZM65.445 61.7865C64.3251 61.7865 63.2843 62.1013 62.5597 62.6785L63.0867 63.6231C63.6269 63.1639 64.4701 62.8753 65.3001 62.8753C66.5517 62.8753 67.171 63.4919 67.171 64.5545V64.8037H65.1684C63.0867 64.8037 62.3621 65.7221 62.3621 66.8371C62.3621 68.0441 63.3634 68.8836 64.9444 68.8836C66.0379 68.8836 66.8152 68.5163 67.2368 67.8866V68.8049H68.4358V64.607C68.4358 62.7048 67.3554 61.7865 65.445 61.7865ZM65.1552 67.9129C64.1934 67.9129 63.6137 67.4799 63.6137 66.7847C63.6137 66.1943 63.9694 65.7089 65.2211 65.7089H67.171V66.6797C66.8548 67.48 66.1038 67.9129 65.1552 67.9129ZM80.0812 61.8521L77.9995 67.4144L75.931 61.8521H74.8638L72.7558 67.3881L70.7269 61.8521H69.5279L72.1234 68.8049H73.3355L75.3777 63.5312L77.3935 68.8049H78.6056L81.2142 61.8521H80.0812ZM88.6157 65.3678C88.6157 63.2295 87.1796 61.7865 85.1639 61.7865C83.1481 61.7865 81.6593 63.2689 81.6593 65.3285C81.6593 67.4012 83.1612 68.8836 85.4142 68.8836C86.5736 68.8836 87.5354 68.4901 88.1678 67.7554L87.4695 66.9421C86.9557 67.5062 86.2706 67.7817 85.4537 67.7817C84.0703 67.7817 83.0822 66.9683 82.9241 65.7483H88.5894C88.6026 65.6302 88.6157 65.4728 88.6157 65.3678ZM85.1639 62.8491C86.3891 62.8491 87.2719 63.6755 87.4036 64.8431H82.9241C83.0558 63.6624 83.9517 62.8491 85.1639 62.8491ZM92.3743 68.8836C94.232 68.8836 95.3914 68.0834 95.3914 66.824C95.3914 64.1216 90.9646 65.4597 90.9646 63.8199C90.9646 63.2689 91.5047 62.8622 92.6115 62.8622C93.2966 62.8622 93.9948 63.0065 94.6272 63.4132L95.1674 62.4162C94.5614 62.0226 93.5337 61.7865 92.6246 61.7865C90.8328 61.7865 89.7129 62.6261 89.7129 63.8723C89.7129 66.6404 94.1266 65.2891 94.1266 66.8503C94.1266 67.4406 93.6391 67.7948 92.4665 67.7948C91.5574 67.7948 90.6088 67.4931 90.016 67.0733L89.489 68.0703C90.0687 68.5294 91.2149 68.8836 92.3743 68.8836ZM99.9632 68.8836C102.058 68.8836 103.586 67.4012 103.586 65.3285C103.586 63.2557 102.058 61.7865 99.9632 61.7865C97.8683 61.7865 96.3268 63.2557 96.3268 65.3285C96.3268 67.4012 97.8683 68.8836 99.9632 68.8836ZM99.9632 67.7817C98.6193 67.7817 97.6048 66.8109 97.6048 65.3285C97.6048 63.8461 98.6193 62.8884 99.9632 62.8884C101.307 62.8884 102.308 63.8461 102.308 65.3285C102.308 66.8109 101.307 67.7817 99.9632 67.7817ZM114.071 61.7865C112.885 61.7865 111.91 62.285 111.383 63.0721C110.922 62.2063 110.026 61.7865 108.959 61.7865C107.905 61.7865 107.048 62.18 106.548 62.8884V61.8521H105.336V68.8049H106.6V65.2235C106.6 63.7149 107.431 62.9147 108.695 62.9147C109.842 62.9147 110.5 63.5837 110.5 64.9481V68.8049H111.765V65.2235C111.765 63.7149 112.595 62.9147 113.86 62.9147C115.006 62.9147 115.665 63.5837 115.665 64.9481V68.8049H116.93V64.8037C116.93 62.7572 115.77 61.7865 114.071 61.7865ZM125.606 65.3678C125.606 63.2295 124.17 61.7865 122.154 61.7865C120.139 61.7865 118.65 63.2689 118.65 65.3285C118.65 67.4012 120.152 68.8836 122.405 68.8836C123.564 68.8836 124.526 68.4901 125.158 67.7554L124.46 66.9421C123.946 67.5062 123.261 67.7817 122.444 67.7817C121.061 67.7817 120.073 66.9683 119.915 65.7483H125.58C125.593 65.6302 125.606 65.4728 125.606 65.3678ZM122.154 62.8491C123.38 62.8491 124.262 63.6755 124.394 64.8431H119.915C120.046 63.6624 120.942 62.8491 122.154 62.8491ZM127.428 65.9057H128.429L128.68 59.6219H127.191L127.428 65.9057ZM127.942 68.8836C128.429 68.8836 128.785 68.5032 128.785 68.0441C128.785 67.5718 128.429 67.2045 127.942 67.2045C127.441 67.2045 127.072 67.5718 127.072 68.0441C127.072 68.5032 127.441 68.8836 127.942 68.8836Z" fill="#504F4F"/>
<path d="M5.71801 34.813H1.68798L0.819962 36.7371H0.024292L3.33098 29.5347H4.08533L7.39201 36.7371H6.58601L5.71801 34.813ZM5.439 34.1957L3.70299 30.3269L1.96697 34.1957H5.439ZM21.2235 29.5347L18.7847 36.7371H17.9788L15.8605 30.5945L13.7317 36.7371H12.9361L10.4974 29.5347H11.2827L13.3701 35.7288L15.5298 29.5347H16.2428L18.3714 35.7597L20.4898 29.5347H21.2235ZM26.7894 34.2574H22.2428C22.2841 34.8199 22.5011 35.276 22.8938 35.6259C23.2865 35.9688 23.7824 36.1403 24.3818 36.1403C24.7193 36.1403 25.0293 36.082 25.3118 35.9654C25.5942 35.8419 25.8388 35.6636 26.0455 35.4304L26.4588 35.9037C26.2177 36.1918 25.9146 36.4113 25.5494 36.5622C25.1912 36.7131 24.7951 36.7885 24.3611 36.7885C23.8031 36.7885 23.3071 36.6719 22.8731 36.4387C22.446 36.1986 22.1119 35.8694 21.8707 35.4509C21.6296 35.0325 21.5091 34.5592 21.5091 34.0311C21.5091 33.5029 21.6227 33.0296 21.8501 32.6112C22.0843 32.1927 22.4012 31.8669 22.8007 31.6337C23.2072 31.4005 23.6619 31.2839 24.1648 31.2839C24.6677 31.2839 25.1189 31.4005 25.5185 31.6337C25.918 31.8669 26.2315 32.1927 26.4588 32.6112C26.6861 33.0228 26.7998 33.496 26.7998 34.0311L26.7894 34.2574ZM24.1648 31.9115C23.6412 31.9115 23.2003 32.0795 22.8421 32.4157C22.4908 32.7449 22.291 33.177 22.2428 33.7121H26.0972C26.0489 33.177 25.8457 32.7449 25.4874 32.4157C25.1361 32.0795 24.6952 31.9115 24.1648 31.9115ZM28.2931 29.1025H29.0268V36.7371H28.2931V29.1025ZM31.0682 29.1025H31.8019V36.7371H31.0682V29.1025ZM46.6332 29.5347L44.1945 36.7371H43.3885L41.2701 30.5945L39.1415 36.7371H38.3458L35.9071 29.5347H36.6924L38.7798 35.7288L40.9395 29.5347H41.6525L43.7811 35.7597L45.8995 29.5347H46.6332ZM47.8499 31.3251H48.5836V36.7371H47.8499V31.3251ZM48.222 30.1418C48.0704 30.1418 47.943 30.0903 47.8396 29.9875C47.7362 29.8846 47.6846 29.7611 47.6846 29.617C47.6846 29.4798 47.7362 29.3598 47.8396 29.2569C47.943 29.154 48.0704 29.1025 48.222 29.1025C48.3735 29.1025 48.5009 29.154 48.6043 29.2569C48.7076 29.353 48.7593 29.4696 48.7593 29.6067C48.7593 29.7577 48.7076 29.8846 48.6043 29.9875C48.5009 30.0903 48.3735 30.1418 48.222 30.1418ZM52.0821 36.7885C51.6411 36.7885 51.2175 36.7268 50.811 36.6033C50.4114 36.473 50.098 36.3118 49.8707 36.1198L50.2014 35.5436C50.4287 35.7219 50.7146 35.8694 51.059 35.986C51.4035 36.0957 51.7617 36.1506 52.1337 36.1506C52.6297 36.1506 52.9948 36.0752 53.229 35.9242C53.4702 35.7665 53.5908 35.547 53.5908 35.2657C53.5908 35.0669 53.5252 34.9125 53.3944 34.8027C53.2635 34.6861 53.0982 34.6004 52.8984 34.5455C52.6986 34.4838 52.4334 34.4255 52.1027 34.3706C51.6618 34.2883 51.3071 34.206 51.0384 34.1237C50.7697 34.0345 50.5389 33.887 50.346 33.6812C50.16 33.4754 50.067 33.1908 50.067 32.8272C50.067 32.3745 50.2565 32.0041 50.6354 31.716C51.0143 31.4279 51.5413 31.2839 52.2164 31.2839C52.5677 31.2839 52.919 31.3319 53.2704 31.4279C53.6217 31.5171 53.9111 31.6371 54.1384 31.788L53.818 32.3745C53.3703 32.0658 52.8364 31.9115 52.2164 31.9115C51.7479 31.9115 51.3931 31.9938 51.152 32.1585C50.9178 32.3231 50.8007 32.5391 50.8007 32.8067C50.8007 33.0124 50.8661 33.177 50.997 33.3005C51.1348 33.424 51.3036 33.5166 51.5034 33.5783C51.7031 33.6332 51.9787 33.6915 52.33 33.7532C52.764 33.8356 53.1119 33.9179 53.3737 34.0002C53.6355 34.0825 53.8594 34.2231 54.0454 34.4221C54.2314 34.621 54.3244 34.8954 54.3244 35.2452C54.3244 35.7185 54.1246 36.0957 53.7251 36.377C53.3324 36.6514 52.7847 36.7885 52.0821 36.7885ZM58.4501 31.2839C59.1321 31.2839 59.6729 31.4828 60.0725 31.8806C60.4789 32.2716 60.6821 32.8444 60.6821 33.599V36.7371H59.9485V33.671C59.9485 33.1085 59.8072 32.6798 59.5247 32.3848C59.2424 32.0899 58.8394 31.9424 58.3158 31.9424C57.7302 31.9424 57.2652 32.1173 56.9208 32.4671C56.5832 32.8101 56.4144 33.2868 56.4144 33.8973V36.7371H55.6808V29.1025H56.4144V32.2716C56.6142 31.9561 56.8897 31.7126 57.2411 31.5411C57.5924 31.3696 57.9954 31.2839 58.4501 31.2839ZM67.4268 34.2574H62.8802C62.9215 34.8199 63.1385 35.276 63.5312 35.6259C63.9238 35.9688 64.4198 36.1403 65.0191 36.1403C65.3567 36.1403 65.6667 36.082 65.9492 35.9654C66.2316 35.8419 66.4762 35.6636 66.6829 35.4304L67.0962 35.9037C66.8551 36.1918 66.552 36.4113 66.1868 36.5622C65.8286 36.7131 65.4325 36.7885 64.9985 36.7885C64.4405 36.7885 63.9445 36.6719 63.5105 36.4387C63.0833 36.1986 62.7493 35.8694 62.5081 35.4509C62.267 35.0325 62.1464 34.5592 62.1464 34.0311C62.1464 33.5029 62.2601 33.0296 62.4875 32.6112C62.7217 32.1927 63.0386 31.8669 63.4381 31.6337C63.8446 31.4005 64.2993 31.2839 64.8022 31.2839C65.305 31.2839 65.7563 31.4005 66.1559 31.6337C66.5554 31.8669 66.8688 32.1927 67.0962 32.6112C67.3235 33.0228 67.4372 33.496 67.4372 34.0311L67.4268 34.2574ZM64.8022 31.9115C64.2786 31.9115 63.8377 32.0795 63.4795 32.4157C63.1281 32.7449 62.9284 33.177 62.8802 33.7121H66.7345C66.6863 33.177 66.483 32.7449 66.1248 32.4157C65.7735 32.0795 65.3326 31.9115 64.8022 31.9115ZM69.6332 32.3848C69.8054 32.0212 70.0603 31.7469 70.3979 31.5617C70.7423 31.3764 71.166 31.2839 71.6689 31.2839V31.9938L71.4932 31.9835C70.9214 31.9835 70.4736 32.1585 70.1499 32.5083C69.8261 32.8581 69.6642 33.3485 69.6642 33.9796V36.7371H68.9305V31.3251H69.6332V32.3848Z" fill="#504F4F"/>
<path d="M146.781 69.966V75.0677H146.056V70.6001H144.9V69.966H146.781ZM151.502 74.4336V75.0677H147.821V74.5721L149.907 72.5679C150.161 72.325 150.331 72.116 150.419 71.9411C150.507 71.7613 150.551 71.5816 150.551 71.4018C150.551 71.1345 150.456 70.9281 150.265 70.7823C150.08 70.6316 149.812 70.5564 149.46 70.5564C148.895 70.5564 148.458 70.741 148.15 71.1103L147.653 70.6803C147.852 70.4373 148.114 70.2479 148.436 70.1118C148.763 69.9757 149.126 69.9077 149.526 69.9077C150.063 69.9077 150.49 70.0365 150.807 70.294C151.124 70.5467 151.283 70.8916 151.283 71.3289C151.283 71.601 151.224 71.8585 151.107 72.1014C150.99 72.3444 150.768 72.6213 150.441 72.9323L148.875 74.4336H151.502ZM152.587 72.167C152.451 72.167 152.334 72.1209 152.236 72.0286C152.138 71.9314 152.089 71.8099 152.089 71.6642C152.089 71.5233 152.138 71.4067 152.236 71.3143C152.334 71.2172 152.451 71.1686 152.587 71.1686C152.724 71.1686 152.839 71.2147 152.931 71.307C153.024 71.3994 153.07 71.5184 153.07 71.6642C153.07 71.8099 153.022 71.9314 152.924 72.0286C152.832 72.1209 152.719 72.167 152.587 72.167ZM152.587 75.1114C152.451 75.1114 152.334 75.0655 152.236 74.973C152.138 74.876 152.089 74.7543 152.089 74.6086C152.089 74.4679 152.138 74.3513 152.236 74.2587C152.334 74.1618 152.451 74.113 152.587 74.113C152.724 74.113 152.839 74.1589 152.931 74.2514C153.024 74.344 153.07 74.4628 153.07 74.6086C153.07 74.7543 153.022 74.876 152.924 74.973C152.832 75.0655 152.719 75.1114 152.587 75.1114ZM155.724 72.1087C156.227 72.1573 156.61 72.3128 156.873 72.5752C157.137 72.8327 157.268 73.1633 157.268 73.5664C157.268 73.8579 157.195 74.1224 157.049 74.3608C156.902 74.594 156.683 74.7813 156.39 74.922C156.102 75.0582 155.748 75.126 155.329 75.126C154.963 75.126 154.612 75.0728 154.275 74.9657C153.938 74.8542 153.662 74.7011 153.448 74.5065L153.785 73.9308C153.96 74.0962 154.185 74.2296 154.458 74.3316C154.731 74.4285 155.021 74.4774 155.329 74.4774C155.709 74.4774 156.004 74.3972 156.214 74.2369C156.429 74.0765 156.536 73.8557 156.536 73.5736C156.536 73.2916 156.432 73.073 156.222 72.9177C156.012 72.7623 155.695 72.6845 155.27 72.6845H154.86V72.1743L156.149 70.6001H153.682V69.966H157.063V70.4616L155.724 72.1087ZM162.409 73.8142H161.435V75.0677H160.725V73.8142H157.878V73.304L160.498 69.966H161.289L158.778 73.1874H160.747V72.0796H161.435V73.1874H162.409V73.8142Z" fill="#BEBEBE"/>
<path d="M145.248 27.4075V55.5715" stroke="#556080" stroke-width="3.52941" stroke-miterlimit="10"/>
<path d="M145.043 27.4074C152.628 27.4074 158.776 21.2855 158.776 13.7337C158.776 6.18179 152.628 0.0598145 145.043 0.0598145C137.459 0.0598145 131.31 6.18179 131.31 13.7337C131.31 21.2855 137.459 27.4074 145.043 27.4074Z" fill="#DD352E"/>
<path d="M140.124 12.7134C141.822 12.7134 143.198 11.3428 143.198 9.65214C143.198 7.96143 141.822 6.59082 140.124 6.59082C138.426 6.59082 137.05 7.96143 137.05 9.65214C137.05 11.3428 138.426 12.7134 140.124 12.7134Z" fill="#F76363"/>
</svg>
