<svg width="187" height="109" viewBox="0 0 187 109" fill="none" xmlns="http://www.w3.org/2000/svg">
<path d="M5.0624 6.90854L3.69502 4.9865C3.54119 5.00359 3.38166 5.01213 3.21644 5.01213H1.60976V6.90854H0.977356V0.928848H3.21644C3.97989 0.928848 4.57812 1.11109 5.01112 1.47556C5.44413 1.84004 5.66063 2.3412 5.66063 2.97903C5.66063 3.44601 5.54098 3.84181 5.30169 4.16643C5.06809 4.48534 4.73195 4.71599 4.29324 4.85836L5.75463 6.90854H5.0624ZM3.19934 4.47395C3.79187 4.47395 4.24482 4.34297 4.55818 4.081C4.87153 3.81904 5.02821 3.45171 5.02821 2.97903C5.02821 2.49496 4.87153 2.12479 4.55818 1.86851C4.24482 1.60655 3.79187 1.47556 3.19934 1.47556H1.60976V4.47395H3.19934ZM10.9392 4.84982H7.1789C7.21309 5.31681 7.39255 5.69552 7.71729 5.98596C8.04204 6.27069 8.45224 6.41311 8.94796 6.41311C9.22711 6.41311 9.48352 6.36465 9.71707 6.26788C9.95069 6.16535 10.1529 6.01728 10.3238 5.82365L10.6657 6.21662C10.4663 6.45582 10.2156 6.638 9.91365 6.76331C9.61738 6.88863 9.28975 6.95125 8.93084 6.95125C8.46936 6.95125 8.05916 6.8544 7.70018 6.66079C7.34694 6.4615 7.07065 6.18813 6.87124 5.84074C6.67183 5.49334 6.57212 5.1004 6.57212 4.66189C6.57212 4.22338 6.66613 3.83043 6.85415 3.48303C7.04786 3.13564 7.3099 2.86513 7.64041 2.67151C7.97652 2.47788 8.35255 2.38106 8.7685 2.38106C9.18438 2.38106 9.55754 2.47788 9.88804 2.67151C10.2185 2.86513 10.4777 3.13564 10.6657 3.48303C10.8537 3.82473 10.9477 4.21768 10.9477 4.66189L10.9392 4.84982ZM8.7685 2.90215C8.3355 2.90215 7.97084 3.04167 7.67457 3.32073C7.38399 3.59408 7.21877 3.95286 7.1789 4.39707H10.3666C10.3267 3.95286 10.1586 3.59408 9.86236 3.32073C9.57178 3.04167 9.20718 2.90215 8.7685 2.90215ZM14.4731 2.38106C15.0372 2.38106 15.4844 2.54621 15.8149 2.87652C16.151 3.20113 16.3191 3.67666 16.3191 4.3031V6.90854H15.7123V4.3629C15.7123 3.89591 15.5956 3.53998 15.3619 3.2951C15.1283 3.05022 14.795 2.92778 14.362 2.92778C13.8777 2.92778 13.4932 3.073 13.2083 3.36344C12.9292 3.64818 12.7896 4.04398 12.7896 4.55083V6.90854H12.1828V0.570068H12.7896V3.20113C12.9548 2.93917 13.1827 2.737 13.4732 2.59462C13.7638 2.45225 14.0971 2.38106 14.4731 2.38106ZM19.5389 2.38106C20.1258 2.38106 20.5758 2.52913 20.8892 2.82527C21.2026 3.11571 21.3593 3.54852 21.3593 4.12372V6.90854H20.7781V6.20806C20.6414 6.44158 20.4391 6.62376 20.1713 6.75476C19.9093 6.88575 19.5959 6.95125 19.2312 6.95125C18.7299 6.95125 18.3311 6.83169 18.0348 6.59249C17.7385 6.35329 17.5904 6.03721 17.5904 5.64427C17.5904 5.2627 17.7272 4.95518 18.0006 4.72168C18.2798 4.48819 18.7213 4.37145 19.3252 4.37145H20.7525V4.09808C20.7525 3.71083 20.6442 3.41754 20.4277 3.21822C20.2112 3.0132 19.895 2.91069 19.4791 2.91069C19.1943 2.91069 18.9207 2.9591 18.6587 3.05591C18.3966 3.14703 18.1715 3.27517 17.9835 3.44032L17.7101 2.98757C17.9379 2.79394 18.2115 2.64588 18.5305 2.54337C18.8495 2.43517 19.1857 2.38106 19.5389 2.38106ZM19.3252 6.47286C19.6671 6.47286 19.9605 6.396 20.2055 6.24221C20.4505 6.08277 20.6328 5.85498 20.7525 5.55884V4.82419H19.3424C18.5732 4.82419 18.1887 5.09185 18.1887 5.62718C18.1887 5.88914 18.2883 6.09701 18.4877 6.25077C18.6872 6.39887 18.9663 6.47286 19.3252 6.47286ZM25.2977 2.38106C25.8617 2.38106 26.309 2.54621 26.6394 2.87652C26.9756 3.20113 27.1437 3.67666 27.1437 4.3031V6.90854H26.5369V4.3629C26.5369 3.89591 26.4201 3.53998 26.1865 3.2951C25.9528 3.05022 25.6195 2.92778 25.1865 2.92778C24.7023 2.92778 24.3177 3.073 24.0328 3.36344C23.7537 3.64818 23.6141 4.04398 23.6141 4.55083V6.90854H23.0073V2.41523H23.5885V3.24384C23.7537 2.97049 23.9816 2.75977 24.2721 2.6117C24.5684 2.45794 24.9103 2.38106 25.2977 2.38106Z" fill="#504F4F"/>
<path d="M172.775 70.2662V72.3334H172.151V70.2662L169.759 66.3538H170.434L172.484 69.7109L174.536 66.3538H175.168L172.775 70.2662ZM177.349 72.3759C176.916 72.3759 176.526 72.2795 176.178 72.0854C175.83 71.8863 175.557 71.6131 175.358 71.2658C175.158 70.9185 175.059 70.5253 175.059 70.0868C175.059 69.6483 175.158 69.2553 175.358 68.9079C175.557 68.5605 175.83 68.29 176.178 68.0964C176.526 67.9027 176.916 67.806 177.349 67.806C177.782 67.806 178.172 67.9027 178.519 68.0964C178.867 68.29 179.137 68.5605 179.332 68.9079C179.531 69.2553 179.631 69.6483 179.631 70.0868C179.631 70.5253 179.531 70.9185 179.332 71.2658C179.137 71.6131 178.867 71.8863 178.519 72.0854C178.172 72.2795 177.782 72.3759 177.349 72.3759ZM177.349 71.8381C177.668 71.8381 177.953 71.7669 178.203 71.6246C178.46 71.4765 178.659 71.2687 178.801 71.0005C178.944 70.7332 179.015 70.4285 179.015 70.0868C179.015 69.7451 178.944 69.4404 178.801 69.1728C178.659 68.9051 178.46 68.7001 178.203 68.5577C177.953 68.4096 177.668 68.3356 177.349 68.3356C177.03 68.3356 176.742 68.4096 176.486 68.5577C176.235 68.7001 176.035 68.9051 175.887 69.1728C175.745 69.4404 175.673 69.7451 175.673 70.0868C175.673 70.4285 175.745 70.7332 175.887 71.0005C176.035 71.2687 176.235 71.4765 176.486 71.6246C176.742 71.7669 177.03 71.8381 177.349 71.8381ZM184.92 67.8401V72.3334H184.339V71.5131C184.179 71.787 183.96 72.0006 183.681 72.1537C183.402 72.3018 183.082 72.3759 182.723 72.3759C182.137 72.3759 181.673 72.2141 181.33 71.8891C180.994 71.5591 180.826 71.0774 180.826 70.4455V67.8401H181.433V70.3858C181.433 70.8584 181.55 71.2169 181.783 71.4621C182.017 71.7072 182.35 71.8295 182.783 71.8295C183.256 71.8295 183.63 71.6871 183.903 71.4024C184.176 71.1119 184.313 70.7104 184.313 70.1979V67.8401H184.92Z" fill="#504F4F"/>
<path d="M0.00317383 19.8497C0.00317383 15.8791 3.22343 12.6602 7.19583 12.6602H179.222C183.194 12.6602 186.415 15.8791 186.415 19.8497V38.5425C186.415 42.5132 183.194 45.7321 179.222 45.7321H0.00317383V19.8497Z" fill="#F7F7F4"/>
<path d="M19.1986 29.3252C19.1986 30.6808 18.8296 31.718 18.0915 32.4369C17.3573 33.1522 16.299 33.5098 14.9167 33.5098H12.6409V25.2979H15.1583C16.4358 25.2979 17.4285 25.6518 18.1365 26.3596C18.8445 27.0673 19.1986 28.0559 19.1986 29.3252ZM18.1871 29.359C18.1871 28.288 17.9173 27.4811 17.3779 26.9381C16.8422 26.3951 16.0443 26.1237 14.9841 26.1237H13.5961V32.6841H14.7593C15.8982 32.6841 16.7542 32.4051 17.3273 31.8472C17.9005 31.2855 18.1871 30.4561 18.1871 29.359ZM21.7722 27.3537V31.3473C21.7722 31.8491 21.8865 32.2235 22.115 32.4707C22.3435 32.7178 22.7012 32.8414 23.1883 32.8414C23.8326 32.8414 24.3028 32.6654 24.5987 32.3134C24.8984 31.9614 25.0482 31.3866 25.0482 30.589V27.3537H25.981V33.5098H25.2112L25.0763 32.6841H25.0258C24.8347 32.9874 24.5687 33.2196 24.2278 33.3806C23.8906 33.5416 23.5048 33.6221 23.0702 33.6221C22.321 33.6221 21.7591 33.4443 21.3845 33.0885C21.0136 32.7328 20.8281 32.1636 20.8281 31.381V27.3537H21.7722ZM32.1566 32.6841H32.106C31.6752 33.3095 31.0308 33.6221 30.173 33.6221C29.3675 33.6221 28.7401 33.3469 28.2905 32.7964C27.8447 32.246 27.6218 31.4633 27.6218 30.4486C27.6218 29.4338 27.8466 28.6456 28.2961 28.0839C28.7457 27.5222 29.3713 27.2414 30.173 27.2414C31.0084 27.2414 31.649 27.5447 32.0948 28.1513H32.1679L32.1285 27.7076L32.106 27.2751V24.77H33.0388V33.5098H32.2802L32.1566 32.6841ZM30.291 32.8414C30.9278 32.8414 31.3886 32.6691 31.6733 32.3246C31.9618 31.9764 32.106 31.4165 32.106 30.6452V30.4486C32.106 29.5761 31.9599 28.9545 31.6677 28.5838C31.3793 28.2094 30.9166 28.0221 30.2798 28.0221C29.7328 28.0221 29.3132 28.2356 29.0211 28.6624C28.7326 29.0856 28.5884 29.6847 28.5884 30.4598C28.5884 31.2462 28.7326 31.8397 29.0211 32.2404C29.3095 32.6411 29.7328 32.8414 30.291 32.8414ZM37.6241 33.6221C36.7138 33.6221 35.9946 33.345 35.4663 32.7908C34.9419 32.2366 34.6796 31.4672 34.6796 30.4823C34.6796 29.49 34.9232 28.7018 35.4102 28.1176C35.9009 27.5335 36.5583 27.2414 37.3825 27.2414C38.1542 27.2414 38.7648 27.496 39.2144 28.0053C39.6639 28.5108 39.8887 29.1792 39.8887 30.0105V30.6002H35.6462C35.6649 31.3229 35.8465 31.8716 36.1912 32.246C36.5396 32.6204 37.0285 32.8076 37.6579 32.8076C38.3209 32.8076 38.9765 32.6691 39.6246 32.392V33.2233C39.2949 33.3656 38.9821 33.4667 38.6861 33.5266C38.394 33.5903 38.0399 33.6221 37.6241 33.6221ZM37.3712 28.0221C36.8767 28.0221 36.4815 28.1831 36.1856 28.5052C35.8934 28.8272 35.7211 29.2728 35.6686 29.842H38.8885C38.8885 29.2541 38.7573 28.8047 38.4951 28.4939C38.2329 28.1794 37.8583 28.0221 37.3712 28.0221ZM42.4623 32.1729L42.5466 32.3021C42.4492 32.6766 42.3087 33.111 42.1252 33.6052C41.9416 34.1033 41.7506 34.5658 41.552 34.9926H40.8496C40.9507 34.6032 41.0612 34.122 41.1811 33.5491C41.3048 32.9762 41.3909 32.5175 41.4396 32.1729H42.4623ZM47.4354 25.2979H49.7561C50.8463 25.2979 51.6349 25.4609 52.1218 25.7866C52.6088 26.1124 52.8524 26.6273 52.8524 27.3312C52.8524 27.818 52.7156 28.2206 52.4421 28.5388C52.1724 28.8534 51.7772 29.0575 51.2565 29.1511V29.2073C52.504 29.4207 53.1277 30.076 53.1277 31.1732C53.1277 31.9071 52.8785 32.48 52.3803 32.8919C51.8858 33.3038 51.1928 33.5098 50.3012 33.5098H47.4354V25.2979ZM48.3906 28.8141H49.964C50.6383 28.8141 51.1235 28.7092 51.4194 28.4995C51.7153 28.2861 51.8634 27.9285 51.8634 27.4268C51.8634 26.9661 51.6985 26.6348 51.3689 26.4325C51.0392 26.2266 50.5148 26.1237 49.7955 26.1237H48.3906V28.8141ZM48.3906 29.623V32.6953H50.1045C50.7676 32.6953 51.2658 32.568 51.5993 32.3134C51.9364 32.055 52.105 31.6525 52.105 31.1057C52.105 30.5965 51.9326 30.2221 51.588 29.9824C51.2471 29.7427 50.7264 29.623 50.0259 29.623H48.3906ZM60.0731 30.4261C60.0731 31.4297 59.8203 32.2141 59.3145 32.7796C58.8088 33.3412 58.1101 33.6221 57.2185 33.6221C56.6678 33.6221 56.179 33.4929 55.7519 33.2346C55.3248 32.9762 54.9951 32.6055 54.7629 32.1224C54.5306 31.6393 54.4145 31.074 54.4145 30.4261C54.4145 29.4226 54.6655 28.6419 55.1675 28.0839C55.6694 27.5222 56.3663 27.2414 57.2579 27.2414C58.1195 27.2414 58.8031 27.5279 59.3089 28.1008C59.8184 28.6737 60.0731 29.4488 60.0731 30.4261ZM55.381 30.4261C55.381 31.2125 55.5383 31.8116 55.853 32.2235C56.1677 32.6354 56.6304 32.8414 57.241 32.8414C57.8516 32.8414 58.3143 32.6373 58.6289 32.2292C58.9473 31.8172 59.1066 31.2162 59.1066 30.4261C59.1066 29.6435 58.9473 29.05 58.6289 28.6456C58.3143 28.2375 57.8479 28.0334 57.2297 28.0334C56.6191 28.0334 56.1583 28.2337 55.8474 28.6344C55.5364 29.035 55.381 29.6323 55.381 30.4261ZM63.7031 32.8526C63.868 32.8526 64.0272 32.8414 64.1808 32.8189C64.3344 32.7927 64.4561 32.7664 64.546 32.7403V33.4536C64.4449 33.5023 64.295 33.5416 64.0965 33.5715C63.9017 33.6052 63.7257 33.6221 63.5683 33.6221C62.377 33.6221 61.7813 32.9949 61.7813 31.7405V28.0783H60.8992V27.6289L61.7813 27.2414L62.1747 25.927H62.7141V27.3537H64.5011V28.0783H62.7141V31.7012C62.7141 32.0719 62.8022 32.3564 62.9783 32.5549C63.1543 32.7534 63.3959 32.8526 63.7031 32.8526ZM67.7715 32.8526C67.9363 32.8526 68.0956 32.8414 68.2491 32.8189C68.4027 32.7927 68.5245 32.7664 68.6144 32.7403V33.4536C68.5132 33.5023 68.3634 33.5416 68.1648 33.5715C67.97 33.6052 67.794 33.6221 67.6366 33.6221C66.4453 33.6221 65.8497 32.9949 65.8497 31.7405V28.0783H64.9675V27.6289L65.8497 27.2414L66.2431 25.927H66.7825V27.3537H68.5694V28.0783H66.7825V31.7012C66.7825 32.0719 66.8705 32.3564 67.0466 32.5549C67.2226 32.7534 67.4643 32.8526 67.7715 32.8526ZM70.7834 33.5098H69.8506V24.77H70.7834V33.5098ZM75.3628 33.6221C74.4529 33.6221 73.7337 33.345 73.205 32.7908C72.6807 32.2366 72.4188 31.4672 72.4188 30.4823C72.4188 29.49 72.662 28.7018 73.1489 28.1176C73.6402 27.5335 74.2976 27.2414 75.1218 27.2414C75.8929 27.2414 76.5036 27.496 76.9531 28.0053C77.4026 28.5108 77.6278 29.1792 77.6278 30.0105V30.6002H73.3848C73.4035 31.3229 73.5855 31.8716 73.93 32.246C74.2789 32.6204 74.7672 32.8076 75.3966 32.8076C76.0598 32.8076 76.7157 32.6691 77.3638 32.392V33.2233C77.0337 33.3656 76.7208 33.4667 76.4252 33.5266C76.1331 33.5903 75.7793 33.6221 75.3628 33.6221ZM75.1103 28.0221C74.6155 28.0221 74.2206 28.1831 73.9243 28.5052C73.6322 28.8272 73.4603 29.2728 73.4078 29.842H76.6273C76.6273 29.2541 76.4964 28.8047 76.2338 28.4939C75.972 28.1794 75.5973 28.0221 75.1103 28.0221ZM83.146 33.5098H82.2131V27.3537H83.146V33.5098ZM82.1347 25.6855C82.1347 25.4721 82.1865 25.3167 82.2915 25.2194C82.3965 25.1182 82.5274 25.0677 82.6849 25.0677C82.8345 25.0677 82.964 25.1182 83.0726 25.2194C83.1812 25.3205 83.2359 25.4758 83.2359 25.6855C83.2359 25.8953 83.1812 26.0525 83.0726 26.1573C82.964 26.2585 82.8345 26.309 82.6849 26.309C82.5274 26.309 82.3965 26.2585 82.2915 26.1573C82.1865 26.0525 82.1347 25.8953 82.1347 25.6855ZM89.0965 31.8304C89.0965 32.4032 88.8828 32.8451 88.4563 33.1559C88.0291 33.4667 87.4292 33.6221 86.6581 33.6221C85.8411 33.6221 85.2045 33.4929 84.7471 33.2346V32.3696C85.0434 32.5193 85.3599 32.6373 85.6972 32.7234C86.0381 32.8095 86.3654 32.8526 86.6805 32.8526C87.1674 32.8526 87.5421 32.7759 87.8039 32.6223C88.0665 32.4651 88.1974 32.2272 88.1974 31.9089C88.1974 31.6693 88.0924 31.4652 87.8831 31.2968C87.6766 31.1245 87.2724 30.9223 86.6689 30.6901C86.0957 30.4766 85.6879 30.2913 85.444 30.1341C85.2045 29.973 85.0247 29.7914 84.9046 29.5892C84.7888 29.387 84.7305 29.1455 84.7305 28.8647C84.7305 28.3628 84.9348 27.9679 85.3426 27.6795C85.7512 27.3874 86.3115 27.2414 87.0228 27.2414C87.686 27.2414 88.334 27.3762 88.9677 27.6458L88.6361 28.404C88.0176 28.1495 87.458 28.0221 86.9559 28.0221C86.5136 28.0221 86.1798 28.0914 85.9554 28.2299C85.731 28.3685 85.6181 28.5595 85.6181 28.8028C85.6181 28.9676 85.6598 29.108 85.7418 29.2242C85.8281 29.3402 85.9648 29.4507 86.1518 29.5555C86.3395 29.6603 86.6992 29.812 87.2307 30.0105C87.9615 30.2763 88.4542 30.5441 88.7088 30.8137C88.9677 31.0833 89.0965 31.4222 89.0965 31.8304ZM94.5305 30.3587C94.6916 30.1303 94.9369 29.8307 95.2663 29.46L97.2558 27.3537H98.3628L95.8676 29.9768L98.5368 33.5098H97.4076L95.2325 30.6002L94.5305 31.2069V33.5098H93.6091V24.77H94.5305V29.4039C94.5305 29.6098 94.5154 29.9281 94.4852 30.3587H94.5305ZM100.588 33.5098H99.6553V27.3537H100.588V33.5098ZM99.5769 25.6855C99.5769 25.4721 99.6287 25.3167 99.7337 25.2194C99.8387 25.1182 99.9696 25.0677 100.127 25.0677C100.277 25.0677 100.406 25.1182 100.515 25.2194C100.623 25.3205 100.678 25.4758 100.678 25.6855C100.678 25.8953 100.623 26.0525 100.515 26.1573C100.406 26.2585 100.277 26.309 100.127 26.309C99.9696 26.309 99.8387 26.2585 99.7337 26.1573C99.6287 26.0525 99.5769 25.8953 99.5769 25.6855ZM106.78 33.5098V29.5274C106.78 29.0257 106.666 28.6512 106.438 28.404C106.209 28.1569 105.851 28.0334 105.364 28.0334C104.72 28.0334 104.248 28.2075 103.949 28.5557C103.649 28.904 103.499 29.4787 103.499 30.2801V33.5098H102.566V27.3537H103.324L103.476 28.1963H103.521C103.713 27.8929 103.98 27.6589 104.325 27.4941C104.669 27.3256 105.053 27.2414 105.477 27.2414C106.219 27.2414 106.777 27.4211 107.151 27.7806C107.526 28.1363 107.713 28.7074 107.713 29.4938V33.5098H106.78ZM113.827 32.6841H113.777C113.346 33.3095 112.701 33.6221 111.843 33.6221C111.038 33.6221 110.41 33.3469 109.961 32.7964C109.515 32.246 109.292 31.4633 109.292 30.4486C109.292 29.4338 109.517 28.6456 109.967 28.0839C110.416 27.5222 111.042 27.2414 111.843 27.2414C112.679 27.2414 113.319 27.5447 113.765 28.1513H113.838L113.799 27.7076L113.777 27.2751V24.77H114.71V33.5098H113.951L113.827 32.6841ZM111.961 32.8414C112.598 32.8414 113.059 32.6691 113.344 32.3246C113.632 31.9764 113.777 31.4165 113.777 30.6452V30.4486C113.777 29.5761 113.631 28.9545 113.338 28.5838C113.049 28.2094 112.587 28.0221 111.95 28.0221C111.403 28.0221 110.984 28.2356 110.692 28.6624C110.403 29.0856 110.259 29.6847 110.259 30.4598C110.259 31.2462 110.403 31.8397 110.692 32.2404C110.98 32.6411 111.403 32.8414 111.961 32.8414ZM120.48 33.5098L120.295 32.6335H120.25C119.943 33.0192 119.636 33.2814 119.328 33.4199C119.025 33.5547 118.645 33.6221 118.187 33.6221C117.577 33.6221 117.097 33.4648 116.749 33.1503C116.404 32.8358 116.232 32.3883 116.232 31.8079C116.232 30.5646 117.227 29.9131 119.216 29.8532L120.261 29.8195V29.4375C120.261 28.9545 120.156 28.5988 119.946 28.3704C119.74 28.1382 119.408 28.0221 118.952 28.0221C118.438 28.0221 117.858 28.1794 117.21 28.4939L116.923 27.7806C117.227 27.6159 117.559 27.4867 117.918 27.3931C118.281 27.2994 118.645 27.2526 119.008 27.2526C119.742 27.2526 120.285 27.4155 120.638 27.7413C120.994 28.0671 121.171 28.5894 121.171 29.3083V33.5098H120.48ZM118.373 32.8526C118.954 32.8526 119.408 32.6935 119.739 32.3752C120.072 32.0569 120.239 31.6113 120.239 31.0384V30.4823L119.306 30.5217C118.564 30.5478 118.028 30.6639 117.699 30.8698C117.373 31.0721 117.21 31.3885 117.21 31.8191C117.21 32.1561 117.311 32.4126 117.513 32.5886C117.719 32.7646 118.006 32.8526 118.373 32.8526ZM128.55 33.6221C127.658 33.6221 126.967 33.3487 126.476 32.802C125.989 32.2516 125.745 31.4746 125.745 30.471C125.745 29.4413 125.993 28.6456 126.488 28.0839C126.985 27.5222 127.694 27.2414 128.611 27.2414C128.907 27.2414 129.203 27.2732 129.499 27.3369C129.795 27.4005 130.027 27.4754 130.196 27.5616L129.909 28.3535C129.703 28.2711 129.478 28.2037 129.235 28.1513C128.991 28.0952 128.776 28.0671 128.588 28.0671C127.338 28.0671 126.712 28.8647 126.712 30.4598C126.712 31.2162 126.864 31.7966 127.167 32.2011C127.474 32.6055 127.927 32.8076 128.527 32.8076C129.04 32.8076 129.567 32.6972 130.106 32.4763V33.3019C129.694 33.5154 129.175 33.6221 128.55 33.6221ZM136.888 30.4261C136.888 31.4297 136.636 32.2141 136.13 32.7796C135.624 33.3412 134.925 33.6221 134.034 33.6221C133.483 33.6221 132.994 33.4929 132.567 33.2346C132.14 32.9762 131.811 32.6055 131.578 32.1224C131.346 31.6393 131.23 31.074 131.23 30.4261C131.23 29.4226 131.481 28.6419 131.983 28.0839C132.485 27.5222 133.182 27.2414 134.073 27.2414C134.935 27.2414 135.619 27.5279 136.124 28.1008C136.633 28.6737 136.888 29.4488 136.888 30.4261ZM132.196 30.4261C132.196 31.2125 132.354 31.8116 132.668 32.2235C132.983 32.6354 133.446 32.8414 134.056 32.8414C134.667 32.8414 135.129 32.6373 135.445 32.2292C135.762 31.8172 135.922 31.2162 135.922 30.4261C135.922 29.6435 135.762 29.05 135.445 28.6456C135.129 28.2375 134.663 28.0334 134.045 28.0334C133.434 28.0334 132.974 28.2337 132.663 28.6344C132.352 29.035 132.196 29.6323 132.196 30.4261ZM143.845 30.4261C143.845 31.4297 143.592 32.2141 143.087 32.7796C142.581 33.3412 141.882 33.6221 140.991 33.6221C140.44 33.6221 139.951 33.4929 139.524 33.2346C139.097 32.9762 138.767 32.6055 138.535 32.1224C138.303 31.6393 138.186 31.074 138.186 30.4261C138.186 29.4226 138.437 28.6419 138.939 28.0839C139.441 27.5222 140.138 27.2414 141.03 27.2414C141.891 27.2414 142.575 27.5279 143.081 28.1008C143.59 28.6737 143.845 29.4488 143.845 30.4261ZM139.153 30.4261C139.153 31.2125 139.311 31.8116 139.625 32.2235C139.94 32.6354 140.402 32.8414 141.013 32.8414C141.624 32.8414 142.086 32.6373 142.401 32.2292C142.719 31.8172 142.879 31.2162 142.879 30.4261C142.879 29.6435 142.719 29.05 142.401 28.6456C142.086 28.2375 141.62 28.0334 141.002 28.0334C140.391 28.0334 139.931 28.2337 139.619 28.6344C139.308 29.035 139.153 29.6323 139.153 30.4261ZM146.418 33.5098H145.486V24.77H146.418V33.5098ZM149.239 31.2462H148.65L148.363 25.2979H149.526L149.239 31.2462ZM148.262 32.9144C148.262 32.4051 148.487 32.1505 148.936 32.1505C149.154 32.1505 149.32 32.216 149.436 32.3471C149.556 32.4781 149.616 32.6672 149.616 32.9144C149.616 33.154 149.556 33.3412 149.436 33.4761C149.316 33.6071 149.149 33.6727 148.936 33.6727C148.742 33.6727 148.58 33.6146 148.453 33.4986C148.326 33.3787 148.262 33.184 148.262 32.9144Z" fill="#504F4F"/>
<path d="M162.785 30.249V30.8436H163.866V35.0327H164.542V30.249H162.785ZM166.499 34.4382L167.962 33.0304C168.611 32.4085 168.748 31.9916 168.748 31.5269C168.748 30.7069 168.105 30.1943 167.107 30.1943C166.362 30.1943 165.726 30.4609 165.357 30.9187L165.822 31.3219C166.116 30.9666 166.532 30.8025 167.045 30.8025C167.716 30.8025 168.064 31.1032 168.064 31.5953C168.064 31.896 167.969 32.1966 167.462 32.6887L165.514 34.568V35.0327H168.953V34.4382H166.499ZM169.966 32.3128C170.212 32.3128 170.418 32.1147 170.418 31.8413C170.418 31.5679 170.212 31.3766 169.966 31.3766C169.714 31.3766 169.501 31.5679 169.501 31.8413C169.501 32.1147 169.714 32.3128 169.966 32.3128ZM169.966 35.0737C170.212 35.0737 170.418 34.8755 170.418 34.6022C170.418 34.3288 170.212 34.1375 169.966 34.1375C169.714 34.1375 169.501 34.3288 169.501 34.6022C169.501 34.8755 169.714 35.0737 169.966 35.0737ZM172.896 32.2582L174.147 30.7137V30.249H170.989V30.8436H173.293L172.089 32.3196V32.798H172.473C173.293 32.798 173.655 33.1261 173.655 33.6318C173.655 34.1512 173.245 34.4792 172.527 34.4792C171.939 34.4792 171.406 34.2674 171.084 33.9666L170.77 34.5065C171.174 34.8687 171.843 35.0874 172.527 35.0874C173.744 35.0874 174.339 34.4313 174.339 33.625C174.339 32.8869 173.854 32.347 172.896 32.2582ZM179.14 33.2696H178.231V32.2308H177.588V33.2696H175.749L178.093 30.249H177.355L174.908 33.3789V33.8573H177.568V35.0327H178.231V33.8573H179.14V33.2696Z" fill="#BEBEBE"/>
<path d="M97.8234 83.1178C97.8234 79.147 101.044 75.9282 105.016 75.9282H179.222C183.194 75.9282 186.415 79.147 186.415 83.1178V109H105.016C101.044 109 97.8234 105.781 97.8234 101.811V83.1178Z" fill="#69A08A"/>
<path d="M110.461 96.7778V88.5659H111.416V96.7778H110.461ZM120.497 95.0983C120.497 95.6713 120.284 96.1135 119.857 96.4241C119.429 96.7347 118.83 96.89 118.058 96.89C117.241 96.89 116.605 96.7613 116.148 96.5025V95.6376C116.444 95.7871 116.76 95.905 117.097 95.9913C117.438 96.0776 117.766 96.1207 118.081 96.1207C118.568 96.1207 118.942 96.0438 119.205 95.8906C119.467 95.7332 119.598 95.4952 119.598 95.1767C119.598 94.9373 119.493 94.7331 119.283 94.5649C119.077 94.3923 118.673 94.1903 118.069 93.9581C117.497 93.7445 117.088 93.559 116.844 93.4023C116.605 93.2413 116.425 93.0594 116.305 92.8574C116.189 92.6553 116.131 92.4138 116.131 92.1326C116.131 91.6308 116.335 91.2361 116.744 90.9478C117.151 90.6552 117.712 90.5092 118.424 90.5092C119.086 90.5092 119.735 90.6444 120.368 90.914L120.036 91.6718C119.418 91.4173 118.858 91.29 118.356 91.29C117.914 91.29 117.581 91.3598 117.356 91.4978C117.131 91.6366 117.019 91.8278 117.019 92.0708C117.019 92.2355 117.06 92.3764 117.142 92.4921C117.228 92.6086 117.365 92.7186 117.553 92.8236C117.74 92.9285 118.099 93.0802 118.632 93.2787C119.362 93.5447 119.854 93.8121 120.109 94.0817C120.368 94.3513 120.497 94.69 120.497 95.0983ZM127.049 96.7778L125.919 93.1665C125.849 92.9451 125.716 92.4432 125.521 91.661H125.475C125.326 92.316 125.195 92.8214 125.082 93.1773L123.919 96.7778H122.84L121.16 90.6221H122.138C122.535 92.1686 122.836 93.3462 123.042 94.1551C123.252 94.9639 123.372 95.5081 123.402 95.7892H123.447C123.488 95.5757 123.554 95.3004 123.644 94.9639C123.738 94.6231 123.818 94.3535 123.885 94.1551L125.015 90.6221H126.026L127.128 94.1551C127.338 94.7985 127.48 95.3399 127.555 95.7777H127.599C127.615 95.6433 127.654 95.4355 127.717 95.1544C127.785 94.874 128.177 93.3628 128.892 90.6221H129.859L128.156 96.7778H127.049ZM133.579 96.89C132.668 96.89 131.949 96.6132 131.421 96.0589C130.897 95.5045 130.634 94.7353 130.634 93.7503C130.634 92.7581 130.878 91.9694 131.365 91.3857C131.855 90.8019 132.513 90.5092 133.337 90.5092C134.109 90.5092 134.719 90.7638 135.169 91.2735C135.619 91.7789 135.843 92.4475 135.843 93.2787V93.8682H131.601C131.619 94.5908 131.801 95.1393 132.146 95.5139C132.494 95.8885 132.983 96.0754 133.613 96.0754C134.276 96.0754 134.931 95.9374 135.579 95.6598V96.4917C135.25 96.6333 134.937 96.7347 134.641 96.7943C134.348 96.8583 133.994 96.89 133.579 96.89ZM133.326 91.29C132.831 91.29 132.436 91.4511 132.14 91.7732C131.848 92.0953 131.676 92.541 131.623 93.1097H134.843C134.843 92.5223 134.712 92.073 134.45 91.7617C134.187 91.4475 133.812 91.29 133.326 91.29ZM141.227 96.7778L141.041 95.9014H140.996C140.689 96.2875 140.382 96.5492 140.074 96.6879C139.771 96.8224 139.391 96.89 138.934 96.89C138.323 96.89 137.844 96.7332 137.495 96.4183C137.151 96.1034 136.979 95.6562 136.979 95.076C136.979 93.833 137.973 93.1809 139.962 93.1212L141.007 93.0874V92.7057C141.007 92.2225 140.902 91.8666 140.693 91.6387C140.487 91.4065 140.155 91.29 139.698 91.29C139.185 91.29 138.604 91.4475 137.956 91.7617L137.669 91.0485C137.973 90.8838 138.304 90.7544 138.664 90.6609C139.027 90.5675 139.391 90.5208 139.754 90.5208C140.489 90.5208 141.032 90.6832 141.383 91.0096C141.74 91.3353 141.918 91.8573 141.918 92.5762V96.7778H141.227ZM139.119 96.1207C139.7 96.1207 140.155 95.9618 140.484 95.6433C140.818 95.3248 140.985 94.8791 140.985 94.306V93.7503L140.052 93.7898C139.311 93.8157 138.775 93.9322 138.445 94.1378C138.119 94.3398 137.956 94.6562 137.956 95.0868C137.956 95.424 138.058 95.6807 138.26 95.8568C138.465 96.033 138.752 96.1207 139.119 96.1207ZM146.655 90.5092C146.928 90.5092 147.174 90.5315 147.391 90.5768L147.261 91.4417C147.007 91.3857 146.782 91.3576 146.587 91.3576C146.089 91.3576 145.662 91.5596 145.306 91.9644C144.954 92.3685 144.778 92.8725 144.778 93.4749V96.7778H143.845V90.6221H144.615L144.722 91.7617H144.767C144.995 91.3612 145.27 91.0521 145.593 90.8349C145.915 90.6178 146.269 90.5092 146.655 90.5092ZM149.386 94.5145H148.796L148.509 88.5659H149.672L149.386 94.5145ZM148.408 96.1825C148.408 95.6735 148.633 95.4183 149.083 95.4183C149.3 95.4183 149.466 95.4844 149.582 95.6153C149.703 95.7461 149.762 95.9352 149.762 96.1825C149.762 96.4219 149.703 96.6096 149.582 96.744C149.462 96.8749 149.295 96.941 149.083 96.941C148.888 96.941 148.726 96.8828 148.599 96.7663C148.472 96.647 148.408 96.4521 148.408 96.1825Z" fill="white"/>
<path d="M162.785 93.5166V94.1111H163.866V98.3005H164.542V93.5166H162.785ZM166.499 97.7059L167.962 96.2982C168.611 95.6763 168.748 95.2593 168.748 94.7949C168.748 93.9745 168.105 93.4619 167.107 93.4619C166.362 93.4619 165.726 93.7286 165.357 94.1866L165.822 94.59C166.116 94.2341 166.532 94.0701 167.045 94.0701C167.716 94.0701 168.064 94.3714 168.064 94.8632C168.064 95.1637 167.969 95.4642 167.462 95.9567L165.514 97.836V98.3005H168.953V97.7059H166.499ZM169.966 95.5807C170.212 95.5807 170.418 95.3822 170.418 95.109C170.418 94.8358 170.212 94.6446 169.966 94.6446C169.714 94.6446 169.501 94.8358 169.501 95.109C169.501 95.3822 169.714 95.5807 169.966 95.5807ZM169.966 98.3415C170.212 98.3415 170.418 98.1437 170.418 97.8698C170.418 97.5966 170.212 97.4054 169.966 97.4054C169.714 97.4054 169.501 97.5966 169.501 97.8698C169.501 98.1437 169.714 98.3415 169.966 98.3415ZM172.896 95.526L174.147 93.9817V93.5166H170.989V94.1111H173.293L172.089 95.5879V96.066H172.473C173.293 96.066 173.655 96.3938 173.655 96.9C173.655 97.419 173.245 97.7469 172.527 97.7469C171.939 97.7469 171.406 97.5355 171.084 97.2343L170.77 97.7742C171.174 98.1366 171.843 98.3551 172.527 98.3551C173.744 98.3551 174.339 97.6994 174.339 96.8928C174.339 96.1544 173.854 95.6152 172.896 95.526ZM179.14 96.5376H178.231V95.4987H177.588V96.5376H175.749L178.093 93.5166H177.355L174.908 96.6469V97.125H177.568V98.3005H178.231V97.125H179.14V96.5376Z" fill="#F7F7F4"/>
</svg>
